<svg width="24" height="24" viewBox="0 0 24 24" fill="none" xmlns="http://www.w3.org/2000/svg">
<g clip-path="url(#clip0_371_235)">
<path d="M23.846 5.43997C23.7949 5.11552 23.6464 4.81426 23.4202 4.57614C23.194 4.33801 22.9007 4.17427 22.5793 4.10663L18.666 3.24663C18.2463 3.15511 17.8119 3.15477 17.3921 3.24563C16.9723 3.33649 16.5769 3.51644 16.2326 3.7733L4.66596 12.2L1.42596 12.0666C1.1655 12.0573 0.90873 12.1303 0.692112 12.2752C0.475493 12.4201 0.310043 12.6296 0.21926 12.8739C0.128477 13.1182 0.116978 13.3849 0.186396 13.6361C0.255814 13.8873 0.402619 14.1103 0.60596 14.2733L3.93929 16.8933C4.33929 17.38 4.60596 17.2866 11.226 13.68L11.846 19.96C11.8563 20.1313 11.915 20.2961 12.0153 20.4354C12.1156 20.5747 12.2534 20.6826 12.4126 20.7466C12.527 20.7924 12.6494 20.8151 12.7726 20.8133C13.0206 20.8057 13.2574 20.7086 13.4393 20.54L15.0326 19.0866C15.1913 18.9396 15.2987 18.7457 15.3393 18.5333L16.7993 10.6C19.1793 9.26663 21.4326 8.0133 23.0393 7.09997C23.3267 6.93828 23.558 6.69271 23.7021 6.39607C23.8463 6.09944 23.8965 5.76588 23.846 5.43997ZM22.3793 5.93997C20.7126 6.88663 18.3793 8.2133 15.8726 9.58663L15.5993 9.73997L14.046 18.1866L13.066 19.08L12.3326 11.5466L11.446 12C6.66596 14.6666 5.07263 15.44 4.52596 15.68L1.65929 13.4066L5.04596 13.5533L17.046 4.84663C17.2344 4.70524 17.4506 4.6054 17.6805 4.55368C17.9103 4.50197 18.1485 4.49957 18.3793 4.54663L22.2793 5.38663C22.3394 5.39753 22.3944 5.42734 22.4364 5.47171C22.4784 5.51608 22.5051 5.57269 22.5126 5.6333C22.5264 5.69196 22.5208 5.75348 22.4968 5.80872C22.4727 5.86397 22.4316 5.91 22.3793 5.93997Z" fill="#203A8F"/>
<path d="M4.66673 8.35999L7.04006 9.02665L8.13339 8.23332L5.46673 7.45999L6.66673 6.72665L10.3134 6.61999L11.8467 5.50665L6.66673 5.66665C6.50342 5.65782 6.34112 5.69723 6.20006 5.77999L4.44673 6.79999C4.30177 6.88586 4.18548 7.01272 4.11251 7.16458C4.03954 7.31643 4.01315 7.4865 4.03668 7.65333C4.06021 7.82016 4.1326 7.97629 4.24472 8.10204C4.35684 8.2278 4.50368 8.31755 4.66673 8.35999Z" fill="#203A8F"/>
</g>
<defs>
<clipPath id="clip0_371_235">
<rect width="24" height="24" fill="white"/>
</clipPath>
</defs>
</svg>
