<svg width="24" height="24" viewBox="0 0 24 24" fill="none" xmlns="http://www.w3.org/2000/svg">
<path fill-rule="evenodd" clip-rule="evenodd" d="M3 3V17H14.1935V16H4V4H17.5V5.06H18.5V3H3ZM18.5 8C18.5 8.26522 18.3946 8.51957 18.2071 8.70711C18.0196 8.89464 17.7652 9 17.5 9C17.2348 9 16.9804 8.89464 16.7929 8.70711C16.6054 8.51957 16.5 8.26522 16.5 8C16.5 7.73478 16.6054 7.48043 16.7929 7.29289C16.9804 7.10536 17.2348 7 17.5 7C17.7652 7 18.0196 7.10536 18.2071 7.29289C18.3946 7.48043 18.5 7.73478 18.5 8ZM19.5 8C19.5 8.53043 19.2893 9.03914 18.9142 9.41421C18.5391 9.78929 18.0304 10 17.5 10C16.9696 10 16.4609 9.78929 16.0858 9.41421C15.7107 9.03914 15.5 8.53043 15.5 8C15.5 7.46957 15.7107 6.96086 16.0858 6.58579C16.4609 6.21071 16.9696 6 17.5 6C18.0304 6 18.5391 6.21071 18.9142 6.58579C19.2893 6.96086 19.5 7.46957 19.5 8Z" fill="#203A8F"/>
<path fill-rule="evenodd" clip-rule="evenodd" d="M15.0467 10.915C15.3256 10.6488 15.6962 10.5002 16.0817 10.5H18.1227C18.8547 10.5 19.5362 10.749 20.0612 11.245C20.5662 11.722 20.8292 12.3335 20.9367 12.913C21.1057 13.824 20.9307 14.8195 20.5002 15.702V19.75C20.5002 20.0637 20.3823 20.3659 20.1698 20.5967C19.9574 20.8275 19.6659 20.9699 19.3533 20.9958C19.0407 21.0217 18.7298 20.9291 18.4823 20.7363C18.2348 20.5436 18.0688 20.2649 18.0172 19.9555L17.7502 18.3535L17.4832 19.9555C17.4317 20.2649 17.2657 20.5436 17.0181 20.7363C16.7706 20.9291 16.4597 21.0217 16.1471 20.9958C15.8345 20.9699 15.543 20.8275 15.3306 20.5967C15.1181 20.3659 15.0002 20.0637 15.0002 19.75V15.0465C14.7722 15.1782 14.5135 15.2475 14.2502 15.2475H11.6992C11.3014 15.2475 10.9199 15.0895 10.6386 14.8082C10.3573 14.5269 10.1992 14.1453 10.1992 13.7475C10.1992 13.3497 10.3573 12.9681 10.6386 12.6868C10.9199 12.4055 11.3014 12.2475 11.6992 12.2475H13.6492L15.0467 10.915ZM16.0002 16.7375V19.75C16.0004 19.8126 16.0241 19.8729 16.0665 19.9189C16.109 19.9649 16.1672 19.9933 16.2296 19.9985C16.2921 20.0036 16.3541 19.9852 16.4036 19.9467C16.453 19.9083 16.4863 19.8527 16.4967 19.791L17.0182 16.663C17.0376 16.5462 17.0978 16.4402 17.1881 16.3636C17.2784 16.2871 17.3929 16.2451 17.5112 16.245H17.9892C18.1076 16.2451 18.2221 16.2871 18.3123 16.3636C18.4026 16.4402 18.4628 16.5462 18.4822 16.663L19.0037 19.791C19.0142 19.8527 19.0474 19.9083 19.0969 19.9467C19.1463 19.9852 19.2084 20.0036 19.2708 19.9985C19.3332 19.9933 19.3914 19.9649 19.4339 19.9189C19.4764 19.8729 19.5 19.8126 19.5002 19.75V15.5835C19.5002 15.5035 19.5194 15.4246 19.5562 15.3535C19.9422 14.608 20.0827 13.7915 19.9537 13.0955C19.8752 12.6725 19.6917 12.2715 19.3747 11.972C19.0512 11.6665 18.6222 11.5 18.1227 11.5H16.0822C15.9537 11.5 15.8297 11.5495 15.7367 11.638L14.1947 13.109C14.1018 13.1978 13.9782 13.2474 13.8497 13.2475H11.6992C11.5666 13.2475 11.4394 13.3002 11.3457 13.3939C11.2519 13.4877 11.1992 13.6149 11.1992 13.7475C11.1992 13.8801 11.2519 14.0073 11.3457 14.1011C11.4394 14.1948 11.5666 14.2475 11.6992 14.2475H14.2502C14.3787 14.2474 14.5023 14.1978 14.5952 14.109L15.1552 13.575C15.2261 13.5075 15.3152 13.4622 15.4115 13.4448C15.5078 13.4275 15.6071 13.4388 15.6971 13.4773C15.7871 13.5158 15.8638 13.58 15.9176 13.6617C15.9715 13.7434 16.0002 13.8391 16.0002 13.937V16.7375Z" fill="#203A8F"/>
</svg>
