<svg width="24" height="24" viewBox="0 0 24 24" fill="none" xmlns="http://www.w3.org/2000/svg">
<path d="M7.43025 11.9999H13.1445M7.43025 14.2857H15.4302M7.43025 16.5714H10.8588M18.8588 17.7142V9.71422L13.1445 3.99994H7.43025C6.82404 3.99994 6.24266 4.24075 5.814 4.66941C5.38535 5.09806 5.14453 5.67944 5.14453 6.28565V17.7142C5.14453 18.3204 5.38535 18.9018 5.814 19.3305C6.24266 19.7591 6.82404 19.9999 7.43025 19.9999H16.5731C17.1793 19.9999 17.7607 19.7591 18.1893 19.3305C18.618 18.9018 18.8588 18.3204 18.8588 17.7142Z" stroke="#203A8F" stroke-width="1.14286" stroke-linecap="round" stroke-linejoin="round"/>
<path d="M13.1445 3.99994V7.42851C13.1445 8.03472 13.3853 8.6161 13.814 9.04475C14.2427 9.47341 14.824 9.71422 15.4302 9.71422H18.8588" stroke="#203A8F" stroke-width="1.14286" stroke-linecap="round" stroke-linejoin="round"/>
</svg>
