<svg width="24" height="25" viewBox="0 0 24 25" fill="none" xmlns="http://www.w3.org/2000/svg">
<path d="M12.9502 22.5213C15.5952 22.5213 16.9172 22.5213 17.8672 21.7653C18.8162 21.0083 19.1192 19.7143 19.7242 17.1253L21.6422 8.92825C21.9772 7.49525 22.1452 6.77825 21.8402 6.25825C21.2882 5.31725 19.8802 5.52125 18.9602 5.52125" stroke="#203A8F" stroke-width="1.5" stroke-linecap="round" stroke-linejoin="round"/>
<path d="M2 9.52124C2 6.22124 2 4.57124 3.025 3.54624C4.05 2.52124 5.7 2.52124 9 2.52124H12C15.3 2.52124 16.95 2.52124 17.975 3.54624C19 4.57124 19 6.22124 19 9.52124V15.5212C19 18.8212 19 20.4712 17.975 21.4962C16.95 22.5212 15.3 22.5212 12 22.5212H9C5.7 22.5212 4.05 22.5212 3.025 21.4962C2 20.4712 2 18.8212 2 15.5212V9.52124Z" stroke="#203A8F" stroke-width="1.5" stroke-linecap="round" stroke-linejoin="round"/>
<path d="M10.5 6.52124C11.5609 6.52124 12.5783 6.94267 13.3284 7.69281C14.0786 8.44296 14.5 9.46037 14.5 10.5212C14.5 11.5821 14.0786 12.5995 13.3284 13.3497C12.5783 14.0998 11.5609 14.5212 10.5 14.5212M10.5 6.52124C9.43913 6.52124 8.42172 6.94267 7.67157 7.69281C6.92143 8.44296 6.5 9.46037 6.5 10.5212C6.5 11.5821 6.92143 12.5995 7.67157 13.3497C8.42172 14.0998 9.43913 14.5212 10.5 14.5212M10.5 6.52124C9.672 6.52124 9 8.31124 9 10.5212C9 12.7312 9.672 14.5212 10.5 14.5212M10.5 6.52124C11.328 6.52124 12 8.31124 12 10.5212C12 12.7312 11.328 14.5212 10.5 14.5212M7 17.5212H14" stroke="#203A8F" stroke-width="1.5" stroke-linecap="round" stroke-linejoin="round"/>
</svg>
